<?xml version="1.0" encoding="UTF-8" standalone="yes"?>
<svg xmlns="http://www.w3.org/2000/svg" xmlns:xlink="http://www.w3.org/1999/xlink" width="50px" height="50px" viewBox="0 0 50 50" version="1.1" fill="#000000">
  <g id="surface97895">
    <path style=" stroke:none;fill-rule:nonzero;fill:#000000;fill-opacity:1;" d="M 25 2 C 12.308594 2 2 12.308594 2 25 C 2 37.691406 12.308594 48 25 48 C 37.691406 48 48 37.691406 48 25 C 48 12.308594 37.691406 2 25 2 Z M 25 4 C 36.609375 4 46 13.390625 46 25 C 46 30.734375 43.703125 35.921875 39.984375 39.707031 C 38.148438 38.367188 35.902344 37.726562 33.996094 37.085938 C 32.917969 36.722656 31.949219 36.367188 31.242188 35.960938 C 30.59375 35.589844 30.253906 35.199219 30.046875 34.753906 C 31.640625 34.546875 33.195312 34.296875 34.320312 33.886719 C 35.007812 33.632812 35.589844 33.355469 36.0625 33 C 36.539062 32.640625 37 32.125 37 31.386719 C 37 31.105469 36.878906 30.835938 36.671875 30.644531 C 36.585938 30.570312 36.367188 30.183594 36.246094 29.511719 C 36.121094 28.835938 36.0625 27.914062 36.046875 26.859375 C 36.011719 24.757812 36.136719 22.121094 36.027344 19.53125 C 35.914062 16.941406 35.589844 14.386719 34.496094 12.359375 C 33.4375 10.40625 31.46875 9.0625 28.734375 9.054688 C 27.84375 8.4375 26.640625 8.023438 25.09375 8.023438 C 25.066406 8.019531 25.042969 8.023438 25.019531 8.023438 C 21.289062 8.292969 18.703125 9.804688 17.09375 11.953125 C 15.480469 14.105469 14.816406 16.789062 14.496094 19.441406 C 14.175781 22.097656 14.207031 24.753906 14.113281 26.871094 C 14.070312 27.925781 13.988281 28.851562 13.84375 29.53125 C 13.699219 30.210938 13.476562 30.605469 13.335938 30.730469 C 13.121094 30.921875 13 31.191406 13 31.480469 C 13 32.203125 13.441406 32.839844 13.953125 33.222656 C 14.46875 33.605469 15.074219 33.84375 15.769531 34.050781 C 16.898438 34.386719 18.390625 34.578125 19.898438 34.777344 C 19.695312 35.234375 19.335938 35.628906 18.679688 36.003906 C 17.980469 36.40625 17.027344 36.757812 15.964844 37.113281 C 14.078125 37.742188 11.847656 38.371094 10.015625 39.707031 C 6.296875 35.921875 4 30.734375 4 25 C 4 13.390625 13.390625 4 25 4 Z M 25.125 10.027344 C 26.46875 10.035156 27.449219 10.460938 27.832031 10.789062 C 28.023438 10.953125 28.265625 11.039062 28.515625 11.03125 C 30.804688 10.949219 31.910156 11.785156 32.734375 13.3125 C 33.5625 14.839844 33.921875 17.152344 34.027344 19.617188 C 34.132812 22.082031 34.011719 24.6875 34.046875 26.890625 C 34.0625 27.996094 34.117188 29 34.277344 29.875 C 34.382812 30.441406 34.570312 30.949219 34.832031 31.414062 C 34.609375 31.582031 34.191406 31.800781 33.636719 32.003906 C 32.496094 32.421875 30.8125 32.78125 28.90625 32.957031 C 28.394531 33.007812 28 33.4375 28 33.953125 L 28 35 C 28 35.121094 28.023438 35.242188 28.066406 35.359375 C 28.472656 36.417969 29.308594 37.15625 30.246094 37.691406 C 31.183594 38.230469 32.253906 38.613281 33.355469 38.984375 C 35.167969 39.59375 37.046875 40.195312 38.472656 41.109375 C 34.828125 44.160156 30.132812 46 25 46 C 19.867188 46 15.171875 44.160156 11.527344 41.109375 C 12.945312 40.199219 14.804688 39.609375 16.59375 39.011719 C 17.6875 38.644531 18.746094 38.273438 19.675781 37.738281 C 20.605469 37.207031 21.4375 36.46875 21.84375 35.410156 C 21.867188 35.347656 21.882812 35.285156 21.894531 35.21875 C 21.996094 34.617188 22 34.226562 22 33.953125 C 22 33.445312 21.621094 33.019531 21.117188 32.960938 C 19.207031 32.734375 17.484375 32.476562 16.34375 32.136719 C 15.769531 31.964844 15.347656 31.765625 15.152344 31.621094 C 14.984375 31.496094 15.019531 31.507812 15.027344 31.5 C 15.332031 31.015625 15.671875 30.550781 15.800781 29.949219 C 15.988281 29.0625 16.066406 28.058594 16.113281 26.957031 C 16.210938 24.753906 16.183594 22.160156 16.484375 19.683594 C 16.78125 17.203125 17.410156 14.867188 18.691406 13.15625 C 19.972656 11.449219 21.871094 10.269531 25.125 10.027344 Z M 25.125 10.027344 "/>
  </g>
</svg>
